<svg xmlns="http://www.w3.org/2000/svg" viewBox="0 0 320 220" width="320" height="220" role="img" aria-label="장구와 궁채">
  <rect width="320" height="220" fill="#3a2a1e"/>
  <g stroke="#2a1d14" stroke-width="2"><path d="M0 150 H320 M0 176 H320 M0 202 H320"/><path d="M40 150 V220 M150 176 V220 M250 150 V176 M90 202 V220"/></g>
  <rect x="0" y="120" width="320" height="30" fill="#4a3626"/>
  <g transform="translate(160 110)">
    <ellipse cx="-86" cy="0" rx="20" ry="58" fill="#e8e1cf" stroke="#2c4a8a" stroke-width="6"/>
    <ellipse cx="86" cy="0" rx="20" ry="58" fill="#e8e1cf" stroke="#2c4a8a" stroke-width="6"/>
    <path d="M-86 -50 Q-20 -14 0 -12 Q20 -14 86 -50 L86 50 Q20 14 0 12 Q-20 14 -86 50Z" fill="#a3221c"/>
    <path d="M-80 -46 L-6 -10 M-80 46 L-6 10 M80 -46 L6 -10 M80 46 L6 10" stroke="#f1d27a" stroke-width="1.5"/>
    <g stroke="#d9cfb6" stroke-width="2"><path d="M-86 -54 L86 54"/><path d="M-86 54 L86 -54"/><path d="M-60 -54 L60 54"/><path d="M-60 54 L60 -54"/></g>
    <rect x="-8" y="-12" width="16" height="24" rx="3" fill="#7a1612"/>
  </g>
  <path d="M60 196 L250 172" stroke="#c99a5a" stroke-width="5" stroke-linecap="round"/>
  <circle cx="252" cy="172" r="8" fill="#b78446"/>
</svg>
