<svg xmlns="http://www.w3.org/2000/svg" viewBox="0 0 640 420" width="640" height="420">
  <defs>
    <linearGradient id="wall" x1="0" y1="0" x2="0" y2="1"><stop offset="0" stop-color="#cfcbc1"/><stop offset="1" stop-color="#b3aea3"/></linearGradient>
    <linearGradient id="bsky" x1="0" y1="0" x2="0" y2="1"><stop offset="0" stop-color="#dfe6ea"/><stop offset="1" stop-color="#f2f3ef"/></linearGradient>
  </defs>
  <rect width="640" height="420" fill="url(#wall)"/>
  <rect y="330" width="640" height="90" fill="#8a857b"/>
  <!-- 현수막 -->
  <rect x="120" y="22" width="400" height="34" fill="#4f5a63"/>
  <text x="320" y="45" text-anchor="middle" font-family="'Noto Sans KR',sans-serif" font-weight="700" font-size="16" fill="#eef0ee">서월 힐링타운 사업 설명</text>
  <!-- 이젤 -->
  <path d="M250 330 L300 90 M390 330 L340 90 M320 120 L320 330" stroke="#5b5145" stroke-width="6"/>
  <rect x="176" y="80" width="288" height="200" fill="#f7f7f3" stroke="#6d675e" stroke-width="4"/>
  <rect x="186" y="90" width="268" height="160" fill="url(#bsky)"/>
  <path d="M186 180 C230 130 270 120 320 140 C360 110 410 112 454 150 V250 H186z" fill="#a9bba8"/>
  <path d="M186 214 C250 196 330 198 454 210 V250 H186z" fill="#c4d0bf"/>
  <g fill="#fff" stroke="#6d7b86" stroke-width="1.2">
    <path d="M204 222 l8-6 8 6 v8 h-16z"/><path d="M226 226 l8-6 8 6 v8 h-16z"/><path d="M248 222 l8-6 8 6 v8 h-16z"/>
    <path d="M270 226 l8-6 8 6 v8 h-16z"/><path d="M292 222 l8-6 8 6 v8 h-16z"/><path d="M314 226 l8-6 8 6 v8 h-16z"/>
    <path d="M336 222 l8-6 8 6 v8 h-16z"/><path d="M358 226 l8-6 8 6 v8 h-16z"/><path d="M380 222 l8-6 8 6 v8 h-16z"/>
    <path d="M402 226 l8-6 8 6 v8 h-16z"/><path d="M424 222 l8-6 8 6 v8 h-16z"/>
    <rect x="300" y="196" width="40" height="16"/>
  </g>
  <text x="320" y="268" text-anchor="middle" font-family="'Noto Sans KR',sans-serif" font-weight="700" font-size="13" fill="#3f4a52">SEOWOL HEALING TOWN</text>
  <!-- 뒷모습 실루엣(얼굴 없음) -->
  <g fill="#3d3a36">
    <ellipse cx="60" cy="300" rx="34" ry="40"/><rect x="18" y="320" width="84" height="100" rx="30"/>
    <ellipse cx="585" cy="310" rx="30" ry="36"/><rect x="548" y="330" width="78" height="90" rx="28"/>
  </g>
  <g fill="#5c574f"><rect x="120" y="360" width="70" height="60" rx="6"/><rect x="450" y="360" width="70" height="60" rx="6"/></g>
</svg>
