<svg xmlns="http://www.w3.org/2000/svg" viewBox="0 0 1200 800" width="1200" height="800">
  <title>공수 자동응답 시간표 (2026.06.14)</title>
  <!-- 다은 블로그 '공수 자동응답'. 창작 화면. 문구는 가려져 있다(●). 시간대는 누리메일 자동응답과 같다. -->
  <defs>
    <linearGradient id="bg" x1="0" y1="0" x2="0" y2="1"><stop offset="0" stop-color="#ebe6dc"/><stop offset="1" stop-color="#ddd6c8"/></linearGradient>
  </defs>
  <rect width="1200" height="800" fill="url(#bg)"/>
  <rect x="120" y="70" width="960" height="660" rx="14" fill="#fbfaf7" stroke="#d8d1c3" stroke-width="2"/>
  <g font-family="'Noto Sans KR','Apple SD Gothic Neo','Malgun Gothic',sans-serif">
    <text x="170" y="138" font-size="30" font-weight="700" fill="#2d2924">자동응답 시간표</text>
    <text x="170" y="172" font-size="17" fill="#8f8577">월하당 상담 문의 → 누리메일 답장 · 문구는 어머니 공수 녹음을 받아 적은 것</text>
    <line x1="170" y1="196" x2="1030" y2="196" stroke="#e2dccf" stroke-width="2"/>
    <g font-size="20" fill="#2d2924">
      <text x="170" y="250">새벽</text><text x="300" y="250" fill="#8f8577">05:00 – 10:59</text>
      <text x="170" y="320">낮</text><text x="300" y="320" fill="#8f8577">11:00 – 16:59</text>
      <text x="170" y="390">해 질 녘</text><text x="300" y="390" fill="#8f8577">17:00 – 20:59</text>
      <text x="170" y="460">밤</text><text x="300" y="460" fill="#8f8577">21:00 – 23:59</text>
      <text x="170" y="530">깊은 밤</text><text x="300" y="530" fill="#8f8577">00:00 – 04:59</text>
    </g>
    <g font-size="20" fill="#b9b0a1" letter-spacing="3">
      <text x="480" y="250">●●●●●●●●●●●●●●</text>
      <text x="480" y="320">●●●●●●●●●●●●</text>
      <text x="480" y="390">●●●●●●●●●●●</text>
      <text x="480" y="460">●●●●●●●</text>
      <text x="480" y="530">●●●●●●●●●●●●●●●●</text>
    </g>
    <g>
      <rect x="950" y="232" width="56" height="26" rx="13" fill="#2d2924"/><circle cx="993" cy="245" r="10" fill="#fbfaf7"/>
      <rect x="950" y="302" width="56" height="26" rx="13" fill="#2d2924"/><circle cx="993" cy="315" r="10" fill="#fbfaf7"/>
      <rect x="950" y="372" width="56" height="26" rx="13" fill="#2d2924"/><circle cx="993" cy="385" r="10" fill="#fbfaf7"/>
      <rect x="950" y="442" width="56" height="26" rx="13" fill="#2d2924"/><circle cx="993" cy="455" r="10" fill="#fbfaf7"/>
      <rect x="950" y="512" width="56" height="26" rx="13" fill="#2d2924"/><circle cx="993" cy="525" r="10" fill="#fbfaf7"/>
    </g>
    <line x1="170" y1="572" x2="1030" y2="572" stroke="#e2dccf" stroke-width="2"/>
    <text x="170" y="616" font-size="18" fill="#5b5349">☑ 이름을 적으면 이름을 불러 드림</text>
    <text x="170" y="652" font-size="18" fill="#5b5349">☑ 같은 날 다시 문의하면 다음 시간 문구</text>
    <rect x="760" y="600" width="270" height="62" rx="8" fill="#f1ebdf" stroke="#d8d1c3" stroke-width="2"/>
    <rect x="778" y="614" width="30" height="34" rx="3" fill="#b8383b" opacity=".8"/>
    <text x="824" y="638" font-size="18" fill="#2d2924">첨부: 해원부.png</text>
  </g>
</svg>
